<svg width="204" height="58" viewBox="0 0 204 58" fill="none" xmlns="http://www.w3.org/2000/svg">
<path d="M0.260574 14.5V43.5L26.4235 58L52.5865 43.5V14.5L26.4235 0L0.260574 14.5ZM36.6385 34.6613L26.4235 40.3225L16.2086 34.6613V23.3386L26.4235 17.6773L36.6385 23.3386V34.6613Z" fill="#5EBDAA"/>
<path d="M76.312 19.718C77.2653 20.03 78.002 20.5327 78.522 21.226C79.0593 21.902 79.328 22.7427 79.328 23.748C79.328 25.4813 78.73 26.79 77.534 27.674C76.338 28.558 74.7953 29 72.906 29H64.846V11.658H72.204C74.18 11.658 75.714 12.048 76.806 12.828C77.898 13.5907 78.444 14.804 78.444 16.468C78.444 17.82 77.7333 18.9033 76.312 19.718ZM69.058 18.47H72.438C72.906 18.47 73.3047 18.3313 73.634 18.054C73.9807 17.7767 74.154 17.3607 74.154 16.806C74.154 15.558 73.4953 14.934 72.178 14.934H69.058V18.47ZM72.594 25.75C73.2873 25.7673 73.8593 25.6027 74.31 25.256C74.778 24.9093 75.012 24.3547 75.012 23.592C75.012 22.864 74.778 22.344 74.31 22.032C73.842 21.72 73.244 21.564 72.516 21.564H69.058V25.75H72.594ZM88.3474 29.39C86.4234 29.39 84.9067 28.9393 83.7974 28.038C82.7054 27.1367 82.1594 25.7847 82.1594 23.982V15.844H86.0334V23.67C86.0334 24.502 86.2154 25.126 86.5794 25.542C86.9607 25.9407 87.5587 26.14 88.3734 26.14C89.188 26.14 89.7774 25.9407 90.1414 25.542C90.5227 25.126 90.7134 24.502 90.7134 23.67V15.844H94.3534V23.982C94.3534 25.802 93.8247 27.1627 92.7674 28.064C91.7274 28.948 90.254 29.39 88.3474 29.39ZM97.7746 11.06H101.779V14.05H97.7746V11.06ZM97.8526 16.026H101.727L101.753 29H97.8526V16.026ZM105.214 29V10.878H109.062V29H105.214ZM124.903 10.436V25.568C124.903 26.3827 124.617 27.076 124.045 27.648C123.473 28.22 122.719 28.6533 121.783 28.948C120.847 29.2427 119.85 29.39 118.793 29.39C116.557 29.39 114.824 28.8613 113.593 27.804C112.38 26.7467 111.773 24.918 111.773 22.318C111.773 20.134 112.302 18.444 113.359 17.248C114.434 16.0347 116.002 15.428 118.065 15.428C119.296 15.428 120.292 15.6533 121.055 16.104V10.436H124.903ZM121.055 19.094C120.362 18.73 119.686 18.548 119.027 18.548C117.866 18.548 117.016 18.8427 116.479 19.432C115.942 20.0213 115.673 21.018 115.673 22.422C115.673 23.6353 115.924 24.5627 116.427 25.204C116.93 25.828 117.77 26.14 118.949 26.14C119.59 26.14 120.102 26.0533 120.483 25.88C120.864 25.7067 121.055 25.464 121.055 25.152V19.094ZM128.345 11.06H132.349V14.05H128.345V11.06ZM128.423 16.026H132.297L132.323 29H128.423V16.026ZM135.784 16.962C136.46 16.598 137.492 16.26 138.878 15.948C140.265 15.636 141.504 15.48 142.596 15.48C144.451 15.48 145.846 15.844 146.782 16.572C147.718 17.3 148.186 18.496 148.186 20.16V29H144.312V20.94C144.312 19.432 143.463 18.678 141.764 18.678C141.383 18.678 140.993 18.7213 140.594 18.808C140.196 18.8947 139.884 18.9987 139.658 19.12V29H135.784V16.962ZM158.258 15.48C159.957 15.48 161.3 15.792 162.288 16.416C163.293 17.0227 163.796 17.8893 163.796 19.016V29.156C163.796 30.976 163.215 32.3713 162.054 33.342C160.893 34.3127 159.237 34.798 157.088 34.798C155.979 34.798 155.008 34.72 154.176 34.564C153.344 34.408 152.694 34.2 152.226 33.94V30.534C152.729 30.7767 153.431 31.0107 154.332 31.236C155.233 31.4613 156.1 31.574 156.932 31.574C158.059 31.574 158.847 31.3487 159.298 30.898C159.766 30.4473 160 29.8147 160 29V28.246C159.116 29.0087 158.007 29.39 156.672 29.39C154.835 29.3033 153.413 28.7227 152.408 27.648C151.403 26.556 150.9 24.9527 150.9 22.838C150.9 20.0993 151.524 18.1927 152.772 17.118C154.037 16.026 155.866 15.48 158.258 15.48ZM154.748 22.604C154.748 23.8 155.008 24.7533 155.528 25.464C156.065 26.1573 156.776 26.504 157.66 26.504C158.527 26.504 159.307 26.3047 160 25.906V19.874C160 18.99 159.307 18.548 157.92 18.548C155.805 18.548 154.748 19.9 154.748 22.604Z" fill="white" fill-opacity="0.8"/>
<path d="M72.082 43.6162C71.9502 44.7441 71.5327 45.6157 70.8296 46.231C70.1313 46.8413 69.2012 47.1465 68.0391 47.1465C66.7793 47.1465 65.7686 46.6948 65.0068 45.7915C64.25 44.8882 63.8716 43.6797 63.8716 42.166V41.1406C63.8716 40.1494 64.0474 39.2778 64.3989 38.5259C64.7554 37.7739 65.2583 37.1978 65.9077 36.7974C66.5571 36.3921 67.3091 36.1895 68.1636 36.1895C69.2964 36.1895 70.2046 36.5068 70.8882 37.1416C71.5718 37.7715 71.9697 38.6455 72.082 39.7637H70.6685C70.5464 38.9141 70.2803 38.2988 69.8701 37.918C69.4648 37.5371 68.896 37.3467 68.1636 37.3467C67.2651 37.3467 66.5596 37.6787 66.0469 38.3428C65.5391 39.0068 65.2852 39.9517 65.2852 41.1772V42.21C65.2852 43.3672 65.5269 44.2876 66.0103 44.9712C66.4937 45.6548 67.1699 45.9966 68.0391 45.9966C68.8203 45.9966 69.4185 45.8208 69.8335 45.4692C70.2534 45.1128 70.5317 44.4951 70.6685 43.6162H72.082ZM84.9114 42.0122C84.9114 43.0571 84.7356 43.9702 84.3841 44.7515C84.0325 45.5278 83.5345 46.1211 82.8899 46.5312C82.2454 46.9414 81.4935 47.1465 80.6341 47.1465C79.7942 47.1465 79.0496 46.9414 78.4002 46.5312C77.7508 46.1162 77.2454 45.5278 76.8841 44.7661C76.5276 43.9995 76.3445 43.1133 76.3348 42.1074V41.3384C76.3348 40.313 76.513 39.4072 76.8694 38.6211C77.2259 37.835 77.7288 37.2344 78.3782 36.8193C79.0325 36.3994 79.7796 36.1895 80.6194 36.1895C81.4739 36.1895 82.2259 36.397 82.8753 36.812C83.5296 37.2222 84.0325 37.8203 84.3841 38.6064C84.7356 39.3877 84.9114 40.2983 84.9114 41.3384V42.0122ZM83.5125 41.3237C83.5125 40.0591 83.2586 39.0898 82.7508 38.416C82.243 37.7373 81.5325 37.3979 80.6194 37.3979C79.7308 37.3979 79.0301 37.7373 78.5174 38.416C78.0096 39.0898 77.7483 40.0273 77.7337 41.2285V42.0122C77.7337 43.2378 77.99 44.2021 78.5027 44.9053C79.0203 45.6035 79.7308 45.9526 80.6341 45.9526C81.5423 45.9526 82.2454 45.623 82.7435 44.9639C83.2415 44.2998 83.4979 43.3501 83.5125 42.1147V41.3237ZM97.9166 47H96.503L91.1344 38.7822V47H89.7208V36.3359H91.1344L96.5177 44.5903V36.3359H97.9166V47ZM106.256 42.2466C105.05 41.8999 104.171 41.4751 103.62 40.9722C103.073 40.4644 102.799 39.8394 102.799 39.0972C102.799 38.2573 103.134 37.564 103.803 37.0171C104.476 36.4653 105.35 36.1895 106.425 36.1895C107.157 36.1895 107.809 36.3311 108.38 36.6143C108.956 36.8975 109.401 37.2881 109.713 37.7861C110.031 38.2842 110.189 38.8286 110.189 39.4194H108.776C108.776 38.7749 108.571 38.2695 108.161 37.9033C107.75 37.5322 107.172 37.3467 106.425 37.3467C105.731 37.3467 105.189 37.5005 104.799 37.8081C104.413 38.1108 104.22 38.5332 104.22 39.0752C104.22 39.5098 104.403 39.8784 104.769 40.1812C105.141 40.479 105.768 40.7524 106.652 41.0015C107.54 41.2505 108.234 41.5264 108.732 41.8291C109.235 42.127 109.606 42.4761 109.845 42.8765C110.089 43.2769 110.211 43.748 110.211 44.29C110.211 45.1543 109.874 45.8477 109.201 46.3701C108.527 46.8877 107.626 47.1465 106.498 47.1465C105.766 47.1465 105.082 47.0073 104.447 46.729C103.812 46.4458 103.322 46.0601 102.975 45.5718C102.633 45.0835 102.462 44.5293 102.462 43.9092H103.876C103.876 44.5537 104.113 45.064 104.586 45.4399C105.065 45.811 105.702 45.9966 106.498 45.9966C107.24 45.9966 107.809 45.8452 108.204 45.5425C108.6 45.2397 108.798 44.8271 108.798 44.3047C108.798 43.7822 108.615 43.3794 108.248 43.0962C107.882 42.8081 107.218 42.5249 106.256 42.2466ZM122.089 37.4932H118.661V47H117.262V37.4932H113.842V36.3359H122.089V37.4932ZM130.282 42.686H127.777V47H126.363V36.3359H129.894C131.095 36.3359 132.018 36.6094 132.662 37.1562C133.312 37.7031 133.636 38.499 133.636 39.5439C133.636 40.208 133.456 40.7866 133.094 41.2798C132.738 41.7729 132.24 42.1416 131.6 42.3857L134.105 46.9121V47H132.596L130.282 42.686ZM127.777 41.5361H129.938C130.636 41.5361 131.19 41.3555 131.6 40.9941C132.015 40.6328 132.223 40.1494 132.223 39.5439C132.223 38.8848 132.025 38.3794 131.629 38.0278C131.239 37.6763 130.672 37.498 129.93 37.4932H127.777V41.5361ZM145.821 36.3359V43.5869C145.816 44.5928 145.499 45.4155 144.869 46.0552C144.244 46.6948 143.394 47.0537 142.32 47.1318L141.947 47.1465C140.78 47.1465 139.849 46.8315 139.156 46.2017C138.463 45.5718 138.111 44.7051 138.101 43.6016V36.3359H139.493V43.5576C139.493 44.3291 139.705 44.9297 140.13 45.3594C140.555 45.7842 141.16 45.9966 141.947 45.9966C142.742 45.9966 143.35 45.7842 143.77 45.3594C144.195 44.9346 144.408 44.3364 144.408 43.5649V36.3359H145.821ZM158.585 43.6162C158.453 44.7441 158.035 45.6157 157.332 46.231C156.634 46.8413 155.704 47.1465 154.542 47.1465C153.282 47.1465 152.271 46.6948 151.509 45.7915C150.753 44.8882 150.374 43.6797 150.374 42.166V41.1406C150.374 40.1494 150.55 39.2778 150.901 38.5259C151.258 37.7739 151.761 37.1978 152.41 36.7974C153.06 36.3921 153.812 36.1895 154.666 36.1895C155.799 36.1895 156.707 36.5068 157.391 37.1416C158.074 37.7715 158.472 38.6455 158.585 39.7637H157.171C157.049 38.9141 156.783 38.2988 156.373 37.918C155.967 37.5371 155.399 37.3467 154.666 37.3467C153.768 37.3467 153.062 37.6787 152.549 38.3428C152.042 39.0068 151.788 39.9517 151.788 41.1772V42.21C151.788 43.3672 152.029 44.2876 152.513 44.9712C152.996 45.6548 153.672 45.9966 154.542 45.9966C155.323 45.9966 155.921 45.8208 156.336 45.4692C156.756 45.1128 157.034 44.4951 157.171 43.6162H158.585ZM170.359 37.4932H166.932V47H165.533V37.4932H162.112V36.3359H170.359V37.4932ZM176.15 47H174.744V36.3359H176.15V47ZM189.631 42.0122C189.631 43.0571 189.456 43.9702 189.104 44.7515C188.752 45.5278 188.254 46.1211 187.61 46.5312C186.965 46.9414 186.213 47.1465 185.354 47.1465C184.514 47.1465 183.77 46.9414 183.12 46.5312C182.471 46.1162 181.965 45.5278 181.604 44.7661C181.248 43.9995 181.064 43.1133 181.055 42.1074V41.3384C181.055 40.313 181.233 39.4072 181.589 38.6211C181.946 37.835 182.449 37.2344 183.098 36.8193C183.752 36.3994 184.5 36.1895 185.339 36.1895C186.194 36.1895 186.946 36.397 187.595 36.812C188.25 37.2222 188.752 37.8203 189.104 38.6064C189.456 39.3877 189.631 40.2983 189.631 41.3384V42.0122ZM188.232 41.3237C188.232 40.0591 187.979 39.0898 187.471 38.416C186.963 37.7373 186.252 37.3979 185.339 37.3979C184.451 37.3979 183.75 37.7373 183.237 38.416C182.729 39.0898 182.468 40.0273 182.454 41.2285V42.0122C182.454 43.2378 182.71 44.2021 183.223 44.9053C183.74 45.6035 184.451 45.9526 185.354 45.9526C186.262 45.9526 186.965 45.623 187.463 44.9639C187.961 44.2998 188.218 43.3501 188.232 42.1147V41.3237ZM202.637 47H201.223L195.854 38.7822V47H194.441V36.3359H195.854L201.238 44.5903V36.3359H202.637V47Z" fill="white" fill-opacity="0.8"/>
</svg>
